<svg width="1270" height="500" viewBox="0 0 1270 500" fill="none" xmlns="http://www.w3.org/2000/svg">
<circle cx="250" cy="250" r="250" fill="#06B6D4"/>
<path d="M344.36 281.825H364.136C375.448 281.825 381.104 285.691 381.104 293.422C381.104 298.956 379.11 303.269 375.122 306.361C371.216 309.454 365.682 311 358.521 311H335.327C326.864 311 320.312 309.25 315.674 305.751C311.117 302.17 308.838 297.084 308.838 290.492C308.838 286.26 310.547 280.076 313.965 271.938L345.337 198.451L321.777 223.72C316.162 229.823 310.832 232.875 305.786 232.875C299.194 232.875 294.922 228.358 292.969 219.325L289.551 204.188L259.766 277.675C249.512 302.903 241.699 320.033 236.328 329.066C230.957 338.181 223.999 346.075 215.454 352.748C203.084 362.351 188.883 367.152 172.852 367.152C155.762 367.152 141.886 361.741 131.226 350.917C120.565 340.175 115.234 326.137 115.234 308.803C115.234 286.098 123.617 266.119 140.381 248.866C149.414 239.67 160.685 232.265 174.194 226.649C187.703 220.953 201.009 218.104 214.111 218.104C220.785 218.104 226.115 219.529 230.103 222.377C234.09 225.225 236.084 229.009 236.084 233.729C236.084 238.694 233.968 242.722 229.736 245.814C227.295 247.605 222.575 248.826 215.576 249.477C199.382 250.941 186.32 254.644 176.392 260.585C168.172 265.549 161.621 272.019 156.738 279.994C151.937 287.969 149.536 296.311 149.536 305.019C149.536 314.296 151.896 321.579 156.616 326.869C161.336 332.24 167.806 334.926 176.025 334.926C185.872 334.926 194.417 330.694 201.66 322.23C208.984 313.848 217 298.996 225.708 277.675L274.17 158.412C278.402 147.914 284.098 142.665 291.26 142.665C295.817 142.665 299.398 144.13 302.002 147.06C304.688 149.989 307.007 155.116 308.96 162.44L316.406 190.517L353.027 154.506C361.084 146.612 368.612 142.665 375.61 142.665C380.493 142.665 384.603 144.171 387.939 147.182C391.357 150.111 393.066 153.692 393.066 157.924C393.066 160.609 392.415 163.539 391.113 166.713L388.306 173.549L344.36 281.825Z" fill="white"/>
<path d="M540.531 275.233C540.531 281.337 545.129 284.389 554.325 284.389H590.58C600.834 284.389 605.961 288.01 605.961 295.253C605.961 300.217 604.13 304.083 600.468 306.85C596.887 309.617 591.841 311 585.331 311H550.785C537.927 311 528.121 307.826 521.366 301.479C514.693 295.131 511.356 285.854 511.356 273.646C511.356 257.94 516.646 244.39 527.226 232.997C537.886 221.604 550.541 215.907 565.189 215.907C575.85 215.907 584.395 218.715 590.824 224.33C597.335 229.864 600.59 237.188 600.59 246.303C600.59 257.289 596.114 265.427 587.162 270.717C582.198 273.728 574.792 275.233 564.945 275.233H540.531ZM546.391 253.017H559.818C568.526 253.017 572.758 251.104 572.514 247.279C572.27 242.966 569.462 240.81 564.091 240.81C556.604 240.81 550.704 244.879 546.391 253.017ZM717.655 227.626L728.886 241.786L735.355 249.599C747.888 265.061 754.154 281.418 754.154 298.671C754.154 315.435 748.62 330.124 737.553 342.738C722.416 360.072 702.6 368.739 678.104 368.739C659.143 368.739 643.599 362.88 631.474 351.161C619.348 339.524 613.285 324.59 613.285 306.361C613.285 284.063 622.725 265.468 641.605 250.575C651.615 242.681 660.852 238.734 669.315 238.734C673.71 238.734 677.291 239.996 680.058 242.519C682.825 245.041 684.208 248.297 684.208 252.284C684.208 257.655 681.034 262.294 674.687 266.2L664.921 272.182C659.306 275.681 654.626 280.564 650.883 286.83C647.139 293.096 645.268 299.281 645.268 305.385C645.268 315.069 648.523 323.044 655.033 329.311C661.625 335.658 669.966 338.832 680.058 338.832C691.207 338.832 700.891 334.641 709.11 326.259C717.33 317.958 721.439 308.152 721.439 296.84C721.439 289.678 719.771 283.168 716.435 277.309C713.098 271.449 705.896 262.375 694.828 250.087C687.097 241.542 681.563 234.055 678.227 227.626H645.268C634.037 227.626 628.422 223.76 628.422 216.029C628.422 210.414 630.375 206.101 634.281 203.09C638.269 199.997 643.843 198.451 651.005 198.451H671.879C673.507 182.338 680.871 169.032 693.974 158.534C707.076 147.955 722.782 142.665 741.093 142.665C754.846 142.665 766.036 146.449 774.662 154.018C783.37 161.586 787.724 171.392 787.724 183.437C787.724 199.468 780.847 211.757 767.094 220.302C759.281 225.185 746.871 227.626 729.862 227.626H717.655ZM703.007 198.451H732.304C748.824 198.451 757.084 193.65 757.084 184.047C757.084 180.303 755.375 177.292 751.957 175.014C748.62 172.735 744.145 171.596 738.529 171.596C729.74 171.596 721.724 174.322 714.481 179.774C707.32 185.227 703.495 191.452 703.007 198.451ZM863.651 284.389H877.812C883.427 284.389 887.414 285.243 889.774 286.952C892.134 288.58 893.314 291.306 893.314 295.131C893.314 300.095 891.483 304.001 887.821 306.85C884.241 309.617 879.195 311 872.685 311H850.834C843.998 311 839.441 308.355 837.162 303.065C832.686 308.355 827.071 311 820.316 311H802.494C795.333 311 789.392 308.762 784.672 304.286C779.952 299.81 777.592 294.154 777.592 287.318C777.592 283.412 778.65 278.855 780.766 273.646L797.367 232.875C802.006 221.563 808.354 215.907 816.41 215.907C819.91 215.907 822.88 217.047 825.321 219.325C827.763 221.522 828.983 224.249 828.983 227.504C828.983 229.945 828.332 232.753 827.03 235.927L825.688 239.223L812.87 270.595L811.527 274.257C810.795 276.373 810.388 277.96 810.307 279.018C810.144 282.68 812.504 284.511 817.387 284.511C827.478 284.511 834.192 280.442 837.528 272.304L852.787 234.706C857.344 223.313 863.773 217.616 872.074 217.616C875.492 217.616 878.422 218.756 880.863 221.034C883.305 223.313 884.525 226.039 884.525 229.213C884.525 231.736 883.467 235.642 881.352 240.932L863.651 284.389ZM1044.8 284.389H1059.33C1069.58 284.389 1074.71 288.01 1074.71 295.253C1074.71 300.217 1072.88 304.083 1069.22 306.85C1065.64 309.617 1060.63 311 1054.2 311H1029.42C1024.05 311 1019.7 309.576 1016.36 306.728C1013.02 303.879 1011.36 300.136 1011.36 295.497C1011.36 292.323 1012.46 288.01 1014.65 282.558L1026.13 254.604C1026.78 252.976 1027.1 251.47 1027.1 250.087C1027.1 244.797 1024.42 242.152 1019.05 242.152C1014.9 242.152 1010.79 244.024 1006.72 247.768C1002.65 251.511 999.394 256.475 996.952 262.66L983.28 296.352C978.804 307.257 972.294 312.709 963.749 312.709C960.412 312.709 957.564 311.61 955.204 309.413C952.844 307.216 951.664 304.612 951.664 301.601C951.664 299.241 952.274 296.474 953.495 293.3L954.838 290.004L968.632 255.946C969.853 252.935 970.463 250.575 970.463 248.866C970.463 247.076 969.649 245.53 968.021 244.228C966.394 242.844 964.481 242.152 962.284 242.152C953.495 242.152 946.537 248.5 941.41 261.195L927.128 296.229C922.652 307.216 916.182 312.709 907.719 312.709C904.382 312.709 901.493 311.651 899.052 309.535C896.692 307.338 895.512 304.693 895.512 301.601C895.512 299.159 896.122 296.392 897.343 293.3L898.686 290.004L922.978 230.189C926.396 221.807 931.522 217.616 938.358 217.616C945.438 217.616 949.833 220.953 951.542 227.626C957.076 222.906 961.552 219.773 964.97 218.227C968.469 216.68 972.742 215.907 977.787 215.907C988.692 215.907 996.871 220.668 1002.32 230.189C1011.44 220.668 1021.69 215.907 1033.08 215.907C1040.9 215.907 1047.41 218.186 1052.62 222.743C1057.91 227.219 1060.55 232.753 1060.55 239.345C1060.55 243.495 1059.66 247.768 1057.87 252.162L1044.8 284.389ZM1108.65 275.233C1108.65 281.337 1113.24 284.389 1122.44 284.389H1158.7C1168.95 284.389 1174.08 288.01 1174.08 295.253C1174.08 300.217 1172.25 304.083 1168.58 306.85C1165 309.617 1159.96 311 1153.45 311H1118.9C1106.04 311 1096.24 307.826 1089.48 301.479C1082.81 295.131 1079.47 285.854 1079.47 273.646C1079.47 257.94 1084.76 244.39 1095.34 232.997C1106 221.604 1118.66 215.907 1133.3 215.907C1143.97 215.907 1152.51 218.715 1158.94 224.33C1165.45 229.864 1168.71 237.188 1168.71 246.303C1168.71 257.289 1164.23 265.427 1155.28 270.717C1150.31 273.728 1142.91 275.233 1133.06 275.233H1108.65ZM1114.51 253.017H1127.93C1136.64 253.017 1140.87 251.104 1140.63 247.279C1140.38 242.966 1137.58 240.81 1132.21 240.81C1124.72 240.81 1118.82 244.879 1114.51 253.017Z" fill="#06B6D4"/>
</svg>
